<!-- icon666.com - MILLIONS vector ICONS FREE --><svg version="1.1" id="Capa_1" xmlns="http://www.w3.org/2000/svg" xmlns:xlink="http://www.w3.org/1999/xlink" x="0px" y="0px" viewBox="0 0 409.6 409.6" style="enable-background:new 0 0 409.6 409.6;" xml:space="preserve"><g><g><polygon points="273.065,0 273.065,102.4 375.465,102.4 "></polygon></g></g><g><g><path d="M273.065,136.535c-18.852,0-34.13-15.299-34.13-34.135V0H68.265c-18.852,0-34.13,15.263-34.13,34.135v341.33 c0,18.836,15.278,34.135,34.13,34.135h273.07c18.831,0,34.13-15.263,34.13-34.135v-238.93H273.065z M170.665,213.335H153.6 c-4.716,0-8.535,3.814-8.535,8.53v102.4c0,4.7,3.82,8.535,8.535,8.535h17.065v25.6H153.6c-18.852,0-34.135-15.299-34.135-34.135 v-102.4c0-18.852,15.283-34.13,34.135-34.13h17.065V213.335z M290.135,324.265c0,18.852-15.299,34.135-34.135,34.135h-17.065 v-25.6H256c4.7,0,8.535-3.814,8.535-8.535v-102.4c0-4.7-3.835-8.53-8.535-8.53h-17.065v-25.6H256 c18.837,0,34.135,15.299,34.135,34.13V324.265z"></path></g></g></svg>