<!-- icon666.com - MILLIONS vector ICONS FREE --><svg id="Capa_1" enable-background="new 0 0 125.805 125.805" viewBox="0 0 125.805 125.805" xmlns="http://www.w3.org/2000/svg"><g><g id="Line_15_"><path d="m117.228 17.155h-108.65c-4.738 0-8.578 3.841-8.578 8.578v74.339c0 4.737 3.84 8.578 8.578 8.578h108.65c4.737 0 8.578-3.84 8.578-8.578v-74.339c-.001-4.737-3.841-8.578-8.578-8.578zm-25.733 14.296c7.895 0 14.296 6.401 14.296 14.296s-6.401 14.296-14.296 14.296-14.296-6.401-14.296-14.296 6.4-14.296 14.296-14.296zm25.447 61.302c-.481.982-1.48 1.603-2.573 1.601h-102.932c-1.154-.006-2.192-.705-2.63-1.773-.448-1.065-.211-2.294.6-3.117l42.888-42.888c1.112-1.121 2.922-1.129 4.044-.017l.017.017 24.132 24.16 12.409-7.434c1.242-.733 2.836-.427 3.717.715l20.014 25.733c.667.86.789 2.024.314 3.003z"></path></g></g></svg>