<svg enable-background="new 0 0 32 32" viewBox="0 0 32 32" xmlns="http://www.w3.org/2000/svg">
    <g id="Layer_2">
        <path d="m18.7 4.1c-.4-.4-1.1-.6-1.7-.3-.6.2-.9.8-.9 1.4v5.1c-4.4-.3-7.9.8-10.3 3.1-2.8 2.8-4.1 7.2-3.7 13.1 0 .7.6 1.4 1.3 1.5.6.1 1.2-.2 1.5-.8 1.1-2.3 3.4-5.3 11.2-4.8v4.4c0 .6.4 1.2.9 1.4.2.1.4.1.6.1.4 0 .8-.2 1.1-.4l10.8-10.8c.3-.3.4-.7.4-1.1s-.2-.8-.4-1.1zm-.6 21.6v-3.7c0-.8-.6-1.5-1.3-1.5-.9-.1-1.7-.1-2.5-.1-4.9 0-8.3 1.4-10.3 4.4 0-4.5 1.1-7.8 3.2-9.9 2.1-2 5.2-2.9 9.3-2.5.4 0 .8-.1 1.1-.4s.5-.7.5-1.1v-4.6l9.7 9.7z"></path>
    </g>
</svg>