<?xml version="1.0" encoding="utf-8"?>
<svg version="1.1" xmlns="http://www.w3.org/2000/svg" x="0px" y="0px" viewBox="0 0 256 256"
     enable-background="new 0 0 256 256" xml:space="preserve">
<g><g><g><path fill="#2E7219" d="M117.9,23.7c-9.6,2-20.4,8.6-26.4,16c-6,7.5-10.6,19.5-10.7,27.4v2.6h47.1H175v-2.6c-0.1-11.2-7.7-26.3-17.1-33.7C146.6,24.4,131.7,20.8,117.9,23.7z"/><path
        fill="#2E7219"
        d="M35.1,52.9c-6,2.3-9.3,10.1-6.5,15.7c0.6,1.2,7.3,8.5,14.9,16.1l13.8,13.9l-0.1,15.2L56.9,129l-19.7,0.3c-19,0.3-19.8,0.4-22.2,1.9c-6.4,3.9-6.6,14.5-0.3,19.1c2.1,1.5,2.8,1.5,22.2,1.9l20.1,0.3l0.4,5.2c0.6,6.2,1.7,12,3.4,17l1.2,3.7l-18,17.9c-9.9,9.9-18.3,18.6-18.7,19.3c-4.3,7.8,1.2,17.7,9.8,17.7c4.6,0,7.1-2,23.3-18.2l16-16l3.7,3.7c9.3,9.3,23.8,17.1,35.1,19.1l2.9,0.5v-58.6v-58.6h11.8h11.8v58.6v58.6l2.9-0.5c11.2-1.9,25.4-9.6,34.7-18.7l4.1-4l16.3,16.3c17.5,17.4,18.9,18.4,24.5,17.7c3.2-0.4,7.1-3.2,8.7-6.2c1.4-2.8,1.4-7.9,0-10.6c-0.6-1.1-9.1-10-19.1-20l-18-17.9l1.2-3.7c1.7-5,2.8-10.8,3.4-17l0.4-5.2l20.1-0.3c21.8-0.3,22.2-0.5,24.8-4.4c3.9-5.8,2.4-13-3.3-16.8c-1.8-1.2-3.8-1.3-21.8-1.7l-19.7-0.3l-0.2-15.2l-0.1-15.2l13.8-13.9C229,68,230.3,65.9,227.1,58.9c-2.3-5-7.5-7.3-13.7-6.2c-2.2,0.4-4.7,2.6-16.8,14.6l-14.3,14.1h-54.3H73.6L59.7,67.7c-7.6-7.6-14.8-14.1-15.8-14.5C41.8,52.4,36.9,52.3,35.1,52.9z"/></g></g></g>
</svg>