<svg viewBox="0 0 496 496" xmlns="http://www.w3.org/2000/svg">
    <path d="m152 80c0 17.671875-14.328125 32-32 32s-32-14.328125-32-32 14.328125-32 32-32 32 14.328125 32 32zm0 0"
          fill="#fcd770"></path>
    <path d="m137.039062 402 14.960938-10h16l24 16h24l13.28125 26.558594c.878906 1.761718 1.839844 3.363281 2.957031 4.960937l15.761719-31.519531 17.121094-13.679688 14.878906-11.921874 8-6.398438h24l24 24h32l7.039062 8.800781 24.960938 31.199219 24 8 24 40h-400l8-32 40-8 3.921875-4.878906 28.078125-35.121094 6.480469-4.320312zm0 0"
          fill="#d3a06c"></path>
    <path d="m96 296 38.480469 107.679688-6.480469 4.320312-28.078125 35.121094-3.921875-3.121094-32-104zm0 0"
          fill="#3bafda"></path>
    <path d="m96 440 3.921875 3.121094-3.921875 4.878906-40 8-40-136 48 16zm0 0" fill="#4fc1e9"></path>
    <path d="m96 296-32 40-48-16 24-56zm0 0" fill="#69d6f4"></path>
    <path d="m432 280h56v56h-56zm0 0" fill="#69d6f4"></path>
    <path d="m432 280v56l-56 56v-64zm0 0" fill="#4fc1e9"></path>
    <path d="m488 336-88 104-24.960938-31.199219.960938-.800781v-16l56-56zm0 0" fill="#3bafda"></path>
    <path d="m280 382.398438-14.878906 11.921874-1.121094-2.320312-28.480469-64-7.039062-16-28.480469-64 32-56 48 120zm0 0"
          fill="#3bafda"></path>
    <path d="m264 392 1.121094 2.320312-17.121094 13.679688-15.761719 31.519531c-1.117187-1.597656-2.078125-3.199219-2.957031-4.960937l-13.28125-26.558594h-8l-72-176 64 16 28.480469 64 7.039062 16zm0 0"
          fill="#4fc1e9"></path>
    <path d="m232 192-32 56-64-16 24-72zm0 0" fill="#69d6f4"></path>
    <path d="m328 232v160l-16-16h-24l-8 6.398438v-254.398438l48 48zm0 0" fill="#4fc1e9"></path>
    <path d="m376 392v16l-.960938.800781-7.039062-8.800781h-32l-8-8v-216l48-48zm0 0" fill="#3bafda"></path>
    <path d="m328 72 48 56-48 48-48-48zm0 0" fill="#69d6f4"></path>
    <path d="m384 310.609375v-185.570313l-56-65.328124-56 65.328124v145.417969l-33.785156-84.449219-83.023438-36.894531-27.726562 83.167969 68.613281 167.71875h-1.652344l-24-16h-20.839843l-11.035157 7.351562-36.007812-100.832031-66.359375-37.917969-28.664063 66.886719 40.199219 136.679688-5.957031 23.832031h-41.761719v16h496v-16h-43.472656l-23.191406-38.65625-15.59375-5.199219 82.257812-97.214843v-66.929688h-66.960938zm0 96.582031v-11.878906l51.3125-51.3125h35.441406l-70.578125 83.40625zm-64-175.191406v140.6875l-4.6875-4.6875h-27.3125v-220.6875l32 32v36.6875h16v-36.6875l32-32v244.6875h-28.6875l-3.3125-3.3125v-156.6875zm104 65.390625v35.296875l-40 40v-41.015625zm-58.894531-169.804687-37.105469 37.101562-37.105469-37.101562 37.105469-43.296876zm-200.296875 43.300781 55.855468 24.824219-24.601562 43.050781-49.734375-12.425781zm-15.417969 72.707031 44.890625 11.222656 26.855469 60.429688 14.625-6.492188-26.800781-60.296875 21.765624-38.097656 41.273438 103.183594v65.015625l-3.847656 3.082031-25.28125-56.886719-14.625 6.492188 26.992187 60.722656-13.597656 10.878906-9.640625 19.265625-11.054688-22.113281h-7.570312zm-24.558594 156.902344-1.265625.847656-22.542968 27.753906-28.128907-91.410156 20.402344-25.496094zm-63.222656 46.222656-33.617187-114.292969 29.566406 9.855469 30.503906 99.144531zm-17.785156-171.320312 40.085937 22.90625-22.671875 28.34375-34.453125-11.488282zm390.046875 204.601562h-375.632813l4.289063-17.152344 37.898437-7.574218 33.039063-41.304688.421875-.289062 12.304687 24.617187 10.511719 4.207031-11.375 17.054688 13.3125 8.875 13.238281-19.867188 17.136719 6.859375 5.9375-14.859375-37.167969-14.863281-10.480468-20.96875 7.121093-4.734375h11.160157l24 16h21.476562l11.058594 22.113281c7.976562 15.964844 24.03125 25.886719 41.878906 25.886719v-16c-8.617188 0-16.566406-3.535156-22.28125-9.542969l12.648438-25.304687 8.046874-6.433594 11.625 23.25 18.386719 9.191406 7.160157-14.3125-13.617188-6.808594-10.769531-21.542968 15.609375-12.496094h17.878906l24 24h22.367188l-8 16h-27.054688v16h24v24h16v-30.113281l9.566406-19.125 25.664063 32.078125 23.441406 7.816406zm46.128906-152h-40v-40h40zm0 0"></path>
    <path d="m16 192h16v16h-16zm0 0"></path>
    <path d="m0 208h16v16h-16zm0 0"></path>
    <path d="m16 224h16v16h-16zm0 0"></path>
    <path d="m32 208h16v16h-16zm0 0"></path>
    <path d="m344 0h16v16h-16zm0 0"></path>
    <path d="m328 16h16v16h-16zm0 0"></path>
    <path d="m344 32h16v16h-16zm0 0"></path>
    <path d="m360 16h16v16h-16zm0 0"></path>
    <path d="m464 192h16v16h-16zm0 0"></path>
    <path d="m448 208h16v16h-16zm0 0"></path>
    <path d="m464 224h16v16h-16zm0 0"></path>
    <path d="m480 208h16v16h-16zm0 0"></path>
    <path d="m112 112v16h16v-16c0-13.230469 10.769531-24 24-24h8v-16h-8c-13.230469 0-24-10.769531-24-24v-16h-16v16c0 13.230469-10.769531 24-24 24h-8v16h8c13.230469 0 24 10.769531 24 24zm8-40.246094c2.335938 3.140625 5.105469 5.910156 8.246094 8.246094-3.140625 2.335938-5.910156 5.105469-8.246094 8.246094-2.335938-3.140625-5.105469-5.910156-8.246094-8.246094 3.140625-2.335938 5.910156-5.105469 8.246094-8.246094zm0 0"></path>
    <path d="m112 0h16v16h-16zm0 0"></path>
    <path d="m48 72h16v16h-16zm0 0"></path>
    <path d="m176 72h16v16h-16zm0 0"></path>
    <path d="m112 144h16v16h-16zm0 0"></path>
</svg>