<?xml version="1.0" encoding="UTF-8"?>
<svg width="800px" height="800px" id="layer1" xmlns="http://www.w3.org/2000/svg" version="1.1"
     viewBox="0 0 654.2 413.4">
    <defs>
        <style>
            .cls-1 {
            fill: #000;
            }

            .cls-1, .cls-2, .cls-3, .cls-4 {
            stroke-width: 0px;
            }

            .cls-2 {
            fill: #ff4d00;
            }

            .cls-3 {
            fill: #fff;
            }

            .cls-4 {
            fill: #494240;
            }
        </style>
    </defs>
    <path id="body" class="cls-2"
          d="M648.7,39.6c-3.8.3-22.2,1.8-26,2.1-3.1.2-20.2,1.6-23.3,1.9,21.9,15.4,20.5,40.9,24.8,65,2.6,14.3,10,27.8,16.2,42.7s.8,1.9,1.1,2.8c0,.2.1.3.2.5-8.5,8.6-18,8.5-30.6-3.9-25.4-25-55.8-35.2-91.1-30.8-4.4.5-8.6,2.2-13.1,6.1,7.4,2.2,15.1,3.7,22.1,6.7,13.5,5.7,27.4,11,39.8,18.6,2.1,1.3,3.8,2.6,5.1,4,5.8,6.1,5.2,12.9-1.5,20.5-24.9,27.2-55.9,40.8-93.4,41.1,18-13.5,35.3-26.6,52.7-39.7-.9-1.7-1.8-3.3-2.8-5-70.9-15-132.6,3.2-186.9,53.3,1.7-3.7,3.4-7.4,5.2-11.1,1.8-3.6,3.8-7.1,3.3-12.5-4.3,4.7-9.3,8.9-12.7,14.2-11.1,17.4-22.1,34.8-32.2,52.8-22.2,39.8-57.1,58.5-101.3,60.8-12.2.6-18.4,5.1-24,15.6-15.3,29.3-39.2,47.4-73.1,51.3h0c27.4-25.3,42.6-56.6,51.6-91.5,3.2-12.4,13.7-15,24.3-16.7,27.7-4.5,37.2-13.2,43.7-39.6,4.6-18.5,9.6-36.9,14.6-55.7-2.5,1.6-6.1,4-9.7,6.3-46.3,30.1-95.9,45.9-151.1,31.2C29.5,216.8.9,174.3,5.4,121.1c3.1-37.7,17.1-71.8,36-104.2.8-1.3,2-2.3,4.2-4.6,8.2,34.5,22.4,64.7,45.3,90.2,31.9,35.5,70,59.2,119.7,58.8,26.3-.2,49.7-10.3,70.2-25.4,26.4-19.4,51.5-40.8,76.8-61.6,32.2-26.6,55.4-44.6,89-56.8,64.4-23.4,123.6-7.7,146.6-1.6,5.9,1.6,8,2.8,27.6,8.8,13.7,4.2,18,7.4,19.5,8.3,3.9,2.5,6.7,5,8.4,6.6ZM66,184.1c17.2,8.7,32.7,16.7,52.9,14.7-13-13.7-24.5-25.8-36-37.9.8-.6,1.5-1.3,2.3-1.9,17.1,3.4,34.2,6.7,51.3,10.1.8-1.7,1.6-3.3,2.4-5-45.6-23.7-76.5-60.3-95.7-110.8-21.5,36.9-28.3,71.6-15.9,108.5,8.1,24.3,24.5,41.8,50.1,50.5-3.8-9.4-7.6-18.8-11.4-28.2h0ZM621.1,148.4c.7-.8,1.3-1.6,2-2.4-.4-2.6-.2-5.5-1.4-7.7-6.9-13-14.1-25.7-21-38.6-8.3-15.7-21.7-24.6-38.7-27.6-10.7-1.9-21.9-2.6-33.1,5,12.4,5.3,22.6,9.6,32.8,14-31.2,4.8-43.7,9.8-47.9,22.9,40.9-4.9,76.4,7.5,107.3,34.6h0Z"/>
    <path id="tail" class="cls-3"
          d="M66,184.1c3.8,9.4,7.6,18.8,11.4,28.2-25.7-8.7-42-26.2-50.1-50.5-12.4-36.9-5.6-71.6,15.9-108.5,19.2,50.5,50.1,87.1,95.7,110.8-.8,1.7-1.6,3.3-2.4,5-17.1-3.4-34.2-6.7-51.3-10.1-.8.6-1.5,1.3-2.3,1.9,11.5,12.1,23,24.2,36,37.9-20.2,2-35.7-5.9-52.9-14.7h0Z"/>
    <path id="front" class="cls-3"
          d="M621.1,148.4c-30.9-27.1-66.4-39.5-107.3-34.6,4.2-13.1,16.6-18.1,47.9-22.9-10.2-4.4-20.4-8.7-32.8-14,11.2-7.6,22.5-6.9,33.1-5,17,3,30.3,11.9,38.7,27.6,6.9,13,14.2,25.7,21,38.6,1.2,2.2.9,5.1,1.4,7.7-.7.8-1.3,1.6-2,2.4h0Z"/>
    <path class="cls-1"
          d="M479.2,216.7l52.7-39.7c28-7.5,42.7-9.5,44.1-6,.5,1.2-6.2,8.4-8.9,10.4l-4.9,4.5-4,3.4-4,3.1-3.1,2.3-3.5,2.3-4.4,2.8-4.5,2.7-5,2.4-5.1,2.3-4.7,1.9c-2.5.9-5.1,1.7-7.8,2.6-13.2,4-25.8,6-37,6.7v-1.6Z"/>
    <polyline class="cls-4" points="531.9 177 529.1 172 549.5 172.8"/>
    <path class="cls-1"
          d="M638,153.6l1,3.4.8-.6.7-.6.7-.7.2-.2h.1c0,0,0-.2,0-.2h0c0,0,0-.2,0-.2l-.2-.5-.3-.7-.3-.7-.3-.7c0,.2,0,.4-.1.7-.2.5-.5.7-.7.8-.1,0-.3.1-.5.2-.3,0-.6.2-1,0-.1,0-.3-.1-.5-.3Z"/>
</svg>