<!-- icon666.com - MILLIONS vector ICONS FREE --><svg version="1.1" id="Capa_1" xmlns="http://www.w3.org/2000/svg" xmlns:xlink="http://www.w3.org/1999/xlink" x="0px" y="0px" viewBox="0 0 512 512" style="enable-background:new 0 0 512 512;" xml:space="preserve"><g><g><path d="M439.061,298.742h-4.254V136.166c0-9.009-3.72-17.763-10.205-24.015L317.963,9.343C311.714,3.317,303.492,0,294.811,0 H82.058C63.665,0,48.702,14.964,48.702,33.357v445.285c0,18.394,14.965,33.357,33.356,33.357H401.45 c18.393,0,33.357-14.964,33.357-33.357v-28.189h4.254c13.364,0,24.238-10.873,24.238-24.238V322.98 C463.299,309.615,452.427,298.742,439.061,298.742z M309.821,43.194l80.866,77.961h-80.866V43.194z M404.786,478.643 c0,1.839-1.497,3.336-3.335,3.336H82.058c-1.839,0-3.335-1.497-3.335-3.336V33.357c0-1.839,1.496-3.336,3.335-3.336H279.8v106.145 c0,8.29,6.721,15.01,15.01,15.01h109.974v147.566H246.818c-13.364,0-24.238,10.873-24.238,24.238v103.236 c0,13.364,10.873,24.238,24.238,24.238h157.968V478.643z M433.278,420.433H252.601v-91.668h180.677V420.433z"></path></g></g><g><g><path d="M297.938,351.198c-0.923-0.576-2.029-0.865-3.32-0.865h-12.106c-1.062,0-1.868,0.461-2.421,1.384 c-0.553,0.923-0.831,2.006-0.831,3.251c0,1.338,0.287,2.468,0.865,3.389c0.576,0.924,1.372,1.384,2.387,1.384h6.018v25.249 c0,4.612-2.099,6.918-6.295,6.918c-1.292,0-2.364-0.208-3.216-0.622c-0.854-0.415-1.464-1.049-1.833-1.902 c-0.369-0.854-0.611-1.557-0.727-2.109c-0.116-0.553-0.219-1.314-0.311-2.283c-0.185-2.167-1.96-3.251-5.327-3.251 c-1.983,0-3.389,0.357-4.22,1.072c-0.831,0.716-1.246,2.064-1.246,4.047c0,4.474,1.626,8.002,4.877,10.584 s7.413,3.874,12.487,3.874c4.934,0,8.934-1.314,12.002-3.943c3.066-2.629,4.6-6.756,4.6-12.383v-31.336 C299.322,352.594,298.86,351.774,297.938,351.198z"></path></g></g><g><g><path d="M343.18,395.713l-12.937-42.198c-0.37-1.152-1.211-2.04-2.525-2.663c-1.314-0.622-2.826-0.935-4.531-0.935 c-1.707,0-3.217,0.312-4.531,0.935s-2.157,1.511-2.525,2.663l-12.867,42.198c-0.093,0.369-0.138,0.622-0.138,0.762 c0,1.199,0.75,2.237,2.249,3.112c1.498,0.877,3.055,1.314,4.67,1.314c1.982,0,3.158-0.668,3.527-2.006l2.352-8.647h14.596 l2.353,8.647c0.368,1.338,1.544,2.006,3.527,2.006c1.614,0,3.17-0.438,4.669-1.314c1.498-0.876,2.249-1.913,2.249-3.112 C343.318,396.336,343.272,396.082,343.18,395.713z M318.137,381.947l5.05-18.538l5.05,18.538H318.137z"></path></g></g><g><g><path d="M379.184,351.648c-1.499-0.876-3.055-1.314-4.669-1.314c-1.983,0-3.159,0.669-3.528,2.006l-9.616,35.487l-9.685-35.487 c-0.37-1.337-1.545-2.006-3.527-2.006c-1.615,0-3.171,0.438-4.67,1.314c-1.499,0.877-2.249,1.914-2.249,3.112 c0,0.139,0.045,0.393,0.138,0.761l12.936,42.198c0.368,1.153,1.21,2.04,2.525,2.663c1.315,0.622,2.824,0.935,4.531,0.935 c1.706,0,3.216-0.312,4.531-0.935c1.315-0.622,2.156-1.51,2.525-2.663l12.866-42.198c0.093-0.369,0.14-0.623,0.14-0.761 C381.433,353.563,380.682,352.525,379.184,351.648z"></path></g></g><g><g><path d="M419.481,395.713l-12.937-42.198c-0.37-1.152-1.211-2.04-2.525-2.663c-1.314-0.622-2.826-0.935-4.531-0.935 c-1.707,0-3.217,0.312-4.531,0.935c-1.314,0.622-2.157,1.511-2.525,2.663l-12.867,42.198c-0.093,0.369-0.138,0.622-0.138,0.762 c0,1.199,0.75,2.237,2.249,3.112c1.498,0.877,3.055,1.314,4.67,1.314c1.982,0,3.158-0.668,3.527-2.006l2.352-8.647h14.596 l2.353,8.647c0.368,1.338,1.544,2.006,3.527,2.006c1.614,0,3.17-0.438,4.669-1.314c1.498-0.876,2.249-1.913,2.249-3.112 C419.619,396.336,419.573,396.082,419.481,395.713z M394.438,381.947l5.05-18.538l5.049,18.538H394.438z"></path></g></g></svg>